<svg data-v-0dd9719b="" version="1.0" xmlns="http://www.w3.org/2000/svg" xmlns:xlink="http://www.w3.org/1999/xlink" width="100%" height="100%" viewBox="0 0 340.000000 250.000000" preserveAspectRatio="xMidYMid meet" color-interpolation-filters="sRGB" style="margin: auto;"> <rect data-v-0dd9719b="" x="0" y="0" width="100%" height="100%" fill="#fff" fill-opacity="1" class="background"></rect> <rect data-v-0dd9719b="" x="0" y="0" width="100%" height="100%" fill="url(#watermark)" fill-opacity="1" class="watermarklayer"></rect> <g data-v-0dd9719b="" fill="#333" class="icon-text-wrapper icon-svg-group iconsvg" transform="translate(72.65470886230469,92.42152404785156)"><g class="iconsvg-imagesvg" transform="translate(0,2.1648502349853516)"><g><rect fill="#333" fill-opacity="0" stroke-width="2" x="0" y="0" width="60" height="60.8272506082725" class="image-rect"></rect> <svg x="0" y="0" width="60" height="60.8272506082725" filtersec="colorsb6870828800" class="image-svg-svg primary" style="overflow: visible;"><svg xmlns="http://www.w3.org/2000/svg" viewBox="-0.01667151227593422 -0.0010506667895242572 98.62667083740234 99.98663330078125"><path d="M4.5 70.71a49.73 49.73 0 0 0 13.39 17.61L97.16 46.7z" fill="#2a3d8f"></path><path d="M19.15 89.34a50 50 0 0 0 79.46-27.68z" fill="#272660"></path><path d="M76.66 7.71A50 50 0 0 0 0 51.29l82.29-39.45a51 51 0 0 0-5.63-4.13z" fill="#29aae1"></path><path d="M88 25L.06 52.31A50.25 50.25 0 0 0 4.15 70z" fill="#1f76bb"></path></svg></svg> <!----></g></g> <g transform="translate(67,0)"><g data-gra="path-name" fill-rule="" class="tp-name iconsvg-namesvg"><g transform="scale(1)"><g><path d="M5.34-8.1L8.01-11.53 14.89 0 17.76 0 9.78-13.44 18.02-23.06 14.83-23.06 5.34-11.73 5.34-23.06 1.98-23.06 1.98 0 4.84 0Q5.04 0 5.19-0.15 5.34-0.3 5.34-0.49L5.34-0.49 5.34-8.1ZM26.03-23.06L22.76-23.06 22.76 0 25.53 0Q25.73 0 25.88-0.15 26.03-0.3 26.03-0.49L26.03-0.49 26.03-23.06ZM38.25 0.23Q41.71 0.23 44.03-1.17 46.35-2.57 47.49-5.04 48.63-7.51 48.63-10.71L48.63-10.71Q48.63-16.44 46.12-19.64 43.62-22.83 37.89-22.83L37.89-22.83 30.18-22.83 30.18 0.23 38.25 0.23ZM33.47-20.13L37.82-20.13Q45.6-20.13 45.6-11.37L45.6-11.37Q45.6-7.51 43.82-4.99 42.04-2.47 37.92-2.47L37.92-2.47 33.47-2.47 33.47-20.13ZM51.26-6.33Q51.79-3.03 54.28-1.35 56.76 0.33 60.39 0.33L60.39 0.33Q62.56 0.33 64.41-0.61 66.25-1.55 67.54-3.05 68.82-4.55 68.82-6.59L68.82-6.59Q68.82-8.9 67.44-10.23 66.05-11.56 64.42-12.16 62.79-12.75 59.93-13.44L59.93-13.44 59.27-13.64Q57.16-14.17 55.92-14.87 54.69-15.58 54.69-17.03L54.69-17.03Q54.69-18.88 56.2-19.77 57.72-20.66 59.79-20.66L59.79-20.66Q64.67-20 65.63-16.64L65.63-16.64 67.77-17.3Q67.4-20.13 65.15-21.76 62.89-23.39 59.66-23.39L59.66-23.39Q54.29-23.39 52.96-21.81 51.62-20.23 51.62-16.9L51.62-16.9Q51.62-14.92 52.83-13.69 54.03-12.45 55.46-11.84 56.9-11.23 59.23-10.58L59.23-10.58Q59.66-10.44 60.06-10.41L60.06-10.41Q61.74-10.05 62.91-9.65 64.08-9.26 64.93-8.48 65.79-7.71 65.79-6.46L65.79-6.46Q65.79-4.48 64.14-3.54 62.5-2.6 60.26-2.6L60.26-2.6Q58.08-2.6 56.04-3.82 54-5.04 53.4-6.98L53.4-6.98 51.26-6.33ZM75.38-8.1L78.05-11.53 84.93 0 87.8 0 79.83-13.44 88.06-23.06 84.87-23.06 75.38-11.73 75.38-23.06 72.02-23.06 72.02 0 74.88 0Q75.08 0 75.23-0.15 75.38-0.3 75.38-0.49L75.38-0.49 75.38-8.1ZM107.43 0Q107.63 0 107.78-0.15 107.93-0.3 107.93-0.49L107.93-0.49 107.93-2.73 94.82-2.73 94.82-10.58 106.74-10.58Q106.94-10.58 107.09-10.72 107.24-10.87 107.24-11.07L107.24-11.07 107.24-13.28 94.82-13.28 94.75-20.36 106.91-20.36Q107.1-20.36 107.25-20.51 107.4-20.66 107.4-20.85L107.4-20.85 107.4-23.06 91.45-23.06 91.45 0 107.43 0ZM118.4 0L120.81 0Q121.01 0 121.15-0.15 121.3-0.3 121.3-0.49L121.3-0.49 121.3-9.88 129.67-23.06 126.38-23.06 119.79-12.72 113.33-23.06 109.9-23.06 118.4-10.02 118.4 0Z" transform="translate(-1.9800000190734863, 23.389999389648438)"></path></g> <!----> <!----> <!----> <!----> <!----> <!----> <g data-gra="path-name-1" fill="#333" transform="translate(0,26.719999313354492)"><g transform="scale(1.0139)"><path d="M16.48 0Q16.8 0 17.03-0.24 17.27-0.47 17.27-0.79L17.27-0.79 17.27-32.49 26.54-32.49Q26.85-32.49 27.09-32.72 27.33-32.96 27.33-33.28L27.33-33.28 27.33-36.86 2.11-36.86 2.11-32.49 12.11-32.49 12.11 0 16.48 0ZM31.01-18.01Q31.01-13.01 32.93-8.9 34.86-4.79 38.44-2.4 42.02 0 46.81 0L46.81 0Q51.71 0 55.29-2.45 58.87-4.9 60.74-9.11 62.6-13.32 62.6-18.43L62.6-18.43Q62.6-23.48 60.76-27.67 58.92-31.86 55.36-34.36 51.81-36.86 46.81-36.86L46.81-36.86Q41.7-36.86 38.15-34.36 34.59-31.86 32.8-27.56 31.01-23.27 31.01-18.01L31.01-18.01ZM35.91-17.8Q35.91-24.17 38.44-28.43 40.96-32.7 46.81-32.7L46.81-32.7Q50.6-32.7 53.1-30.72 55.6-28.75 56.55-25.51 57.5-22.27 57.5-18.43L57.5-18.43Q57.5-14.48 56.55-11.22 55.6-7.95 53.1-5.95 50.6-3.95 46.81-3.95L46.81-3.95Q43.12-3.95 40.54-5.84 37.96-7.74 36.94-10.9 35.91-14.06 35.91-17.8L35.91-17.8ZM78.29 0L82.14 0Q82.45 0 82.69-0.24 82.93-0.47 82.93-0.79L82.93-0.79 82.93-15.8 96.3-36.86 91.04-36.86 80.51-20.32 70.19-36.86 64.71-36.86 78.29-16.01 78.29 0ZM99.99-10.11Q100.83-4.84 104.81-2.16 108.78 0.53 114.57 0.53L114.57 0.53Q118.05 0.53 121-0.97 123.94-2.47 126-4.87 128.05-7.27 128.05-10.53L128.05-10.53Q128.05-14.22 125.84-16.35 123.63-18.48 121.02-19.43 118.42-20.38 113.84-21.48L113.84-21.48 112.78-21.8Q109.41-22.64 107.44-23.77 105.46-24.9 105.46-27.22L105.46-27.22Q105.46-30.17 107.89-31.59 110.31-33.01 113.62-33.01L113.62-33.01Q121.42-31.96 122.94-26.59L122.94-26.59 126.37-27.64Q125.79-32.17 122.18-34.78 118.57-37.38 113.41-37.38L113.41-37.38Q104.83-37.38 102.7-34.86 100.57-32.33 100.57-27.01L100.57-27.01Q100.57-23.85 102.49-21.88 104.41-19.9 106.7-18.93 108.99-17.95 112.73-16.9L112.73-16.9Q113.41-16.69 114.05-16.64L114.05-16.64Q116.73-16.06 118.6-15.43 120.47-14.8 121.84-13.56 123.21-12.32 123.21-10.32L123.21-10.32Q123.21-7.16 120.58-5.66 117.94-4.16 114.36-4.16L114.36-4.16Q110.89-4.16 107.62-6.11 104.36-8.06 103.41-11.16L103.41-11.16 99.99-10.11Z" transform="translate(-2.109999895095825, 37.380001068115234)"></path></g></g></g></g> <!----></g></g><defs v-gra="od"></defs></svg>